# xmcd CD database file
#
# Track frame offsets:
#	150
#	18620
#	31198
#	49271
#	66377
#	82428
#	102397
#	119723
#	135205
#	148749
#	167471
#
# Disc length: 2237 seconds
#
# Revision: 0
# Processed by: cddbd v1.5.1PL0 Copyright (c) Steve Scherf et al.
# Submitted via: CDex 1.50beta10
#
DISCID=a008bb0b
DTITLE=Tom Principato - Smokin
DYEAR=1985
DGENRE=Blues
TTITLE0=Slipped, Tripped, Fell in Love
TTITLE1=My Baby Worships Me
TTITLE2=Blue Mood
TTITLE3=Lipstick, Powder and Paint
TTITLE4=Fish Fry
TTITLE5=Here I Come
TTITLE6=Talkin' Trash
TTITLE7=I'm on Fire
TTITLE8=Well Oh Well
TTITLE9=Hard Livin'
TTITLE10=Bonus Track
EXTD=YEAR: 1985
EXTT0=
EXTT1=
EXTT2=
EXTT3=
EXTT4=
EXTT5=
EXTT6=
EXTT7=
EXTT8=
EXTT9=
EXTT10=
PLAYORDER=
